<svg xmlns:xlink="http://www.w3.org/1999/xlink" xmlns="http://www.w3.org/2000/svg" width="20" height="20"
     viewBox="0 0 20 20">
    <defs>
        <path id="a" d="M0 0h19.961v19.961H0z"/>
    </defs>
    <g fill="none" fill-rule="evenodd">
        <mask id="b" fill="#fff">
            <use xlink:href="#a"/>
        </mask>
        <path fill="#FF2E64"
              d="M16.42 15.008l-3.186-.797-.184-.736c2.199-.37 3.33-1.028 3.38-1.058a.416.416 0 0 0 .042-.687c-.015-.011-1.501-1.239-1.501-5.492 0-3.587-.84-5.406-2.495-5.406h-.246C11.633.255 11.185 0 9.98 0 8.418 0 4.99 1.571 4.99 6.238c0 4.253-1.486 5.48-1.497 5.49a.416.416 0 0 0 .035.689c.05.029 1.17.69 3.382 1.06l-.184.734-3.186.797A4.668 4.668 0 0 0 0 19.545c0 .23.186.416.416.416h19.13c.229 0 .415-.188.415-.417a4.668 4.668 0 0 0-3.54-4.536"
              mask="url(#b)"/>
    </g>
</svg>
